<svg width="16" height="16" viewBox="0 0 16 16" fill="none" xmlns="http://www.w3.org/2000/svg">
<mask id="mask0_5_149" style="mask-type:luminance" maskUnits="userSpaceOnUse" x="0" y="0" width="16" height="16">
<path fill-rule="evenodd" clip-rule="evenodd" d="M15.5796 2.75734C15.3756 2.23184 15.1036 1.78671 14.6584 1.34158C14.2133 0.896445 13.7682 0.62442 13.2427 0.420402C12.7357 0.222566 12.1484 0.0865533 11.3014 0.049459L11.287 0.0488338C10.4451 0.0122257 10.1639 0 8 0C5.8238 0 5.55178 0.00618238 4.69861 0.049459C3.84544 0.0865533 3.2643 0.222566 2.75734 0.420402C2.23184 0.62442 1.78671 0.896445 1.34158 1.34158C0.896445 1.78671 0.62442 2.23184 0.420402 2.75734C0.222566 3.2643 0.0865533 3.85162 0.049459 4.69861L0.0488339 4.71299C0.0122257 5.55491 0 5.83607 0 8C0 10.1762 0.00618238 10.4482 0.049459 11.3014C0.0865533 12.1546 0.222566 12.7357 0.420402 13.2427C0.62442 13.7682 0.896445 14.2133 1.34158 14.6584C1.78671 15.1036 2.23184 15.3756 2.75734 15.5796C3.2643 15.7774 3.85162 15.9134 4.69861 15.9505L4.713 15.9512C5.55491 15.9878 5.83609 16 8 16C10.1762 16 10.4482 15.9938 11.3014 15.9505C12.1546 15.9134 12.7357 15.7774 13.2427 15.5796C13.7682 15.3756 14.2133 15.1036 14.6584 14.6584C15.1036 14.2133 15.3756 13.7682 15.5796 13.2427C15.7774 12.7357 15.9134 12.1484 15.9505 11.3014L15.9512 11.287C15.9878 10.4451 16 10.1639 16 8C16 5.8238 15.9938 5.55178 15.9505 4.69861C15.9134 3.84544 15.7774 3.2643 15.5796 2.75734ZM13.9547 10.9548C13.9208 11.6667 13.8022 12.0565 13.7005 12.3108C13.5706 12.6498 13.4067 12.8983 13.1525 13.1526C12.8982 13.4068 12.6553 13.565 12.3107 13.7006C12.0508 13.8023 11.6666 13.9209 10.9547 13.9548L10.9179 13.9564C10.173 13.9891 9.92342 14 7.99994 14C6.04514 14 5.8135 13.9944 5.04514 13.9548C4.33327 13.9209 3.94344 13.8023 3.6892 13.7006C3.35022 13.5707 3.10163 13.4068 2.8474 13.1526C2.59316 12.8983 2.43497 12.6554 2.29937 12.3108C2.19768 12.0509 2.07904 11.6667 2.04514 10.9548L2.0438 10.9243C2.01094 10.1744 1.99994 9.92329 1.99994 8.00003C1.99994 6.05088 2.00559 5.81359 2.04514 5.04523C2.07904 4.33337 2.19768 3.94354 2.29937 3.6893C2.42932 3.35032 2.59316 3.10173 2.8474 2.84749C3.10163 2.59326 3.34457 2.43506 3.6892 2.29947C3.94909 2.19777 4.33327 2.07913 5.04514 2.04523L5.07571 2.04389C5.82561 2.01104 6.07668 2.00003 7.99994 2.00003C9.94909 2.00003 10.1864 2.00568 10.9547 2.04523C11.6666 2.07913 12.0564 2.19777 12.3107 2.29947C12.6497 2.42941 12.8982 2.59326 13.1525 2.84749C13.4067 3.10173 13.5649 3.34467 13.7005 3.6893C13.8022 3.94919 13.9208 4.33337 13.9547 5.04523L13.9561 5.0758V5.07582C13.9889 5.82571 13.9999 6.07679 13.9999 8.00003C13.9999 9.9306 13.9889 10.1818 13.9557 10.933L13.9547 10.9548ZM13 4.00005C13 4.55234 12.5523 5.00005 12 5.00005C11.4477 5.00005 11 4.55234 11 4.00005C11 3.44777 11.4477 3.00005 12 3.00005C12.5523 3.00005 13 3.44777 13 4.00005ZM8 4.00007C5.79248 4.00007 4 5.79255 4 8.00007C4 10.2076 5.79248 12.0001 8 12.0001C10.2075 12.0001 12 10.2076 12 8.00007C12 5.79255 10.2075 4.00007 8 4.00007ZM6 8.0001C6 9.10659 6.89815 10.0001 8 10.0001C9.10185 10.0001 10 9.10196 10 8.0001C10 6.89362 9.10648 6.0001 8 6.0001C6.89352 6.0001 6 6.89825 6 8.0001Z" fill="white"/>
</mask>
<g mask="url(#mask0_5_149)">
<rect x="-3" y="-2" width="24.2667" height="24.2667" fill="#737373"/>
</g>
</svg>
