<svg width="17" height="16" viewBox="0 0 17 16" fill="none" xmlns="http://www.w3.org/2000/svg">
<mask id="mask0_5_143" style="mask-type:luminance" maskUnits="userSpaceOnUse" x="0" y="1" width="17" height="14">
<path fill-rule="evenodd" clip-rule="evenodd" d="M16.8 2.65685C16.1819 2.93846 15.5182 3.12854 14.8203 3.21308C15.5318 2.77585 16.0785 2.08338 16.3363 1.25846C15.6699 1.66285 14.9326 1.95792 14.1476 2.11569C13.5185 1.42915 12.6226 1 11.6306 1C9.72701 1 8.1847 2.582 8.1847 4.53392C8.1847 4.81069 8.21463 5.081 8.27344 5.33946C5.40885 5.19192 2.86932 3.78492 1.16894 1.64669C0.872768 2.169 0.702626 2.77585 0.702626 3.42362C0.702626 4.65023 1.31125 5.73146 2.23548 6.36577C1.67097 6.34692 1.13953 6.18862 0.674794 5.92369C0.674269 5.93823 0.674268 5.95385 0.674268 5.96785C0.674268 7.68069 1.86212 9.10923 3.43908 9.43392C3.15026 9.51415 2.84569 9.55777 2.53113 9.55777C2.30848 9.55777 2.09317 9.53569 1.88312 9.49477C2.32108 10.898 3.59452 11.92 5.10218 11.9491C3.92326 12.8968 2.43713 13.4627 0.822356 13.4627C0.544036 13.4627 0.269392 13.446 0 13.4132C1.52498 14.4147 3.33668 15 5.28335 15C11.6227 15 15.0902 9.61485 15.0902 4.94423C15.0902 4.79131 15.086 4.63838 15.0797 4.48654C15.7534 3.98846 16.3374 3.36654 16.8 2.65685Z" fill="white"/>
</mask>
<g mask="url(#mask0_5_143)">
<rect width="24.2667" height="24.2667" transform="translate(-4 -4)" fill="white"/>
<rect x="-4" y="-4" width="24.2667" height="24.2667" fill="#737373"/>
</g>
</svg>
