<svg width="92" height="92" viewBox="0 0 92 92" fill="none" xmlns="http://www.w3.org/2000/svg">
<path d="M90.163 18.322L62.572 46.081L90.163 73.675C91.318 74.827 91.318 76.696 90.163 77.851L77.635 90.376C76.486 91.531 74.617 91.531 73.462 90.376L45.916 62.83L18.535 90.376C17.383 91.531 15.514 91.531 14.359 90.376L1.834 77.851C0.682001 76.696 0.682001 74.827 1.834 73.675L29.215 46.129L1.837 18.751C0.685001 17.599 0.685001 15.73 1.837 14.575L14.362 2.05C15.514 0.894996 17.383 0.894996 18.538 2.05L45.868 29.38L73.465 1.621C74.62 0.465995 76.489 0.465995 77.638 1.621L90.166 14.146C91.315 15.301 91.315 17.17 90.163 18.322Z" fill="white"/>
</svg>
