<!-- icon666.com - MILLIONS vector ICONS FREE --><svg id="Layer_1" viewBox="0 0 64 64" xmlns="http://www.w3.org/2000/svg" xmlns:xlink="http://www.w3.org/1999/xlink"><linearGradient id="SVGID_1_" gradientUnits="userSpaceOnUse" x1="10.797" x2="53.203" y1="53.203" y2="10.797"><stop offset="0" stop-color="#fee27a"></stop><stop offset="1" stop-color="#f9a52b"></stop></linearGradient><g><g><path d="m40.447 25.542-10.674 10.673-6.22-6.22c-.781-.781-2.048-.781-2.828 0-.781.781-.781 2.047 0 2.828l7.634 7.634c.391.391.902.586 1.414.586s1.023-.195 1.414-.586l12.088-12.087c.781-.781.781-2.047 0-2.828s-2.048-.781-2.828 0zm-8.447-23.542c-16.542 0-30 13.458-30 30s13.458 30 30 30 30-13.458 30-30-13.458-30-30-30zm0 56c-14.336 0-26-11.663-26-26s11.664-26 26-26 26 11.663 26 26-11.664 26-26 26z" fill="url(#SVGID_1_)" style="fill: rgb(52, 199, 89);"></path></g></g></svg>